# xmcd
#
# Track frame offsets: 
#        150
#        15420
#        30463
#
# Disc length: 605 seconds
#
# Revision: 0
# Processed by: cddbd v1.5.2PL0 Copyright (c) Steve Scherf et al.
# Submitted via: ExactAudioCopyFreeDBPlugin 1.0
#
DISCID=13025b03
DTITLE=Dr. Dre and Snoop Dogg - The Wsh (Single)
DYEAR=2001
DGENRE=Rap
TTITLE0=The Wash (Clean)
TTITLE1=The Wash (Album)
TTITLE2=The Wash (Instrumental)
EXTD=
EXTT0=
EXTT1=
EXTT2=
PLAYORDER=
